PathFileType	4	(X/Y/Z)	7_2_8_p0_0-263.trc
DataRate	CameraRate	NumFrames	NumMarkers	Units	OrigDataRate	OrigDataStartFrame	OrigNumFrames
59.0	59.0	7	27	m	59.0	165	264
Frame#	Time	RHip			RKnee			RAnkle			RBigToe			RSmallToe			RHeel			LHip			LKnee			LAnkle			LBigToe			LSmallToe			LHeel			Neck			Head			Nose			RShoulder			RElbow			RWrist			RThumb			RIndex			RPinky			LShoulder			LElbow			LWrist			LThumb			LIndex			LPinky			
		X1	Y1	Z1	X2	Y2	Z2	X3	Y3	Z3	X4	Y4	Z4	X5	Y5	Z5	X6	Y6	Z6	X7	Y7	Z7	X8	Y8	Z8	X9	Y9	Z9	X10	Y10	Z10	X11	Y11	Z11	X12	Y12	Z12	X13	Y13	Z13	X14	Y14	Z14	X15	Y15	Z15	X16	Y16	Z16	X17	Y17	Z17	X18	Y18	Z18	X19	Y19	Z19	X20	Y20	Z20	X21	Y21	Z21	X22	Y22	Z22	X23	Y23	Z23	X24	Y24	Z24	X25	Y25	Z25	X26	Y26	Z26	X27	Y27	Z27	
165	2.7966101694915255	0.2941269411692767	0.31906726914121436	1.198353732959885	0.31104239322144706	0.28803120894630313	1.6030852450587112	0.28383673964717093	0.3138600146398297	2.0240843507365462	0.2587339524332049	0.10029364439467127	1.9889950165318417	0.3220149291938225	0.14164644991778877	2.0132016474676653	0.2659453969980753	0.3385697602890803	2.1040495782401494	0.09234578281164103	0.35415884093907696	1.2274005894991673	0.08834045056285988	0.2865855081395665	1.5781369218249068	0.13028305873303797	0.32523035735996375	2.0426862055743458	0.10318232934817259	0.08870714597134234	1.9997664955907128	0.054157740022899525	0.15853999759829532	2.007407711912862	0.13980213416006718	0.3548957817058327	2.1054447276094854	0.21620528817912119	0.45281301059869045	0.6290535890186815	0.2381581018684627	0.4379051257013202	0.3616629135705637	0.21636811557342747	0.34446905428660113	0.5015192976542718	0.36922502192269113	0.3805853579924574	0.670373747373475	0.4935362077873168	0.11061272604196078	0.7217719185532973	0.30201356205096885	0.16688056710809338	0.6432117913698839	0.2046066924822612	0.2884965648020273	0.6498112289606269	0.2011767619740265	0.2649184846026421	0.644637145741668	0.21975226661204883	0.21329089959716127	0.6554882064775528	0.06010958773253002	0.47021854742675046	0.7147401393990375	-0.035760524726009206	0.4870145041576301	0.9763871682936324	-0.0262085491651167	0.3207377034877343	1.129114192541268	0.05196173331814355	0.29517853658960547	1.1944888434434702	0.03875011769844737	0.25553287162127486	1.1949294167927367	0.008038136751148358	0.2406347722691123	1.2002162082833803
166	2.8135593220338984	0.29831952966738573	0.3205626518794605	1.1987511828522357	0.31070225383084454	0.28974248625236537	1.599340747252585	0.28383414772634763	0.31380914533080867	2.02428649457022	0.2588607194450024	0.10050246899650607	1.9896032208904897	0.3219347679376614	0.14149955722896176	2.0132304985277476	0.2660349386158871	0.3386963477703196	2.104697574993384	0.09235186290960933	0.3542402765496101	1.2271951746750165	0.09226428879505055	0.2978442471681577	1.589095972774937	0.13127733584679557	0.3252545047651364	2.038008897958008	0.105817870971201	0.09884594636739484	2.0076569040734804	0.04954982437789839	0.17123669367176036	2.01753416390737	0.13967970855545975	0.3545721949406829	2.105115373997059	0.22016175182204753	0.4399256123834647	0.6261401697195464	0.2381588662374478	0.4377708608854012	0.36168993137042343	0.21634888815609335	0.3444043944757233	0.5015353080397248	0.3692804013802478	0.38079487333855533	0.670613109390457	0.4940819252662526	0.11053902162340104	0.7257441935004296	0.3018347778649849	0.16704329339698745	0.6439342228079414	0.2048388651189644	0.2881765991763746	0.6502989840811979	0.20154366503750304	0.2634667907743199	0.6514193134924676	0.21996205273397904	0.21242961119373	0.6591226219175065	0.06027754688846922	0.4704838855296457	0.7148494962493216	-0.04119899246339824	0.499988053294271	0.9809979588076144	-0.026167310058775917	0.32069366657947806	1.1291327270334466	0.05185396368241105	0.29499488711998967	1.1944879880443615	0.03875941151662127	0.2554279415544158	1.1949414898103519	0.008090098996914605	0.2405417890374333	1.2001424568614383
167	2.830508474576271	0.294164053875412	0.31914362290361586	1.1983933780556282	0.31073144180198614	0.2897675803608157	1.5992221022612139	0.28391588347147495	0.31389076429584345	2.024759389635426	0.2628202205686599	0.10962428942678293	2.0010886547397626	0.3259818118634371	0.1500184476833982	2.024227635383561	0.2657259195679855	0.3386568220728753	2.105144728935094	0.09236762639289997	0.3542299754570036	1.2272871596460149	0.08919009536725368	0.28723473761750545	1.5832013878404823	0.13028425876325886	0.3250094799670218	2.042474048437082	0.10586377355615749	0.09876415865953758	2.0079502490232572	0.05420140228920904	0.15843376592493957	2.0074482366001245	0.13966650541335984	0.35446824546569766	2.105278399099407	0.21594046177789183	0.43878420535633345	0.6266845440704882	0.23817915212321966	0.43789831543196417	0.36183686562557055	0.21629422643757368	0.3443101242205835	0.5018978496573792	0.3661193322399689	0.3932889536771336	0.6723242042384003	0.49408766904961443	0.11025289823799292	0.725414019895679	0.30565511249830946	0.17374821428977977	0.6516147086150965	0.20760590429535317	0.2948168144192404	0.6585202015160515	0.2083045327431383	0.2607788410245775	0.6513461358636661	0.2316261942420896	0.19607345093645856	0.6551638201714269	0.057090666406584153	0.45846403791704277	0.7116797775926132	-0.04105052723445042	0.4988653018221981	0.9846083420236119	-0.025974556320187286	0.3208064823650493	1.1291517542844711	0.05218195172995989	0.29514505182574885	1.1943033853513265	0.03644026129017287	0.24580757064263503	1.1908998104350015	0.011831437660133308	0.24241105537475283	1.2007730901350049
168	2.847457627118644	0.2947343198542105	0.3178542512327095	1.2101288067911202	0.3110874778371099	0.2879550308052559	1.6031879784624945	0.2839838928777573	0.3137884931978998	2.0252662923105578	0.26009889219685717	0.10084068538755096	1.9958396605288877	0.32590213562852477	0.14887741896387355	2.0251403108571893	0.2662217675621511	0.33913628130539936	2.1072370448203355	0.09233784460255172	0.3540322335681361	1.2274021928370347	0.09226465616799734	0.2978677856916534	1.5996154794968545	0.13023350613480927	0.3247928792908763	2.0420274396730513	0.10594877965664194	0.09932655168202836	2.0091400092644536	0.05419851716681309	0.1584480506538194	2.008020259365059	0.13967064543269062	0.3547412727509332	2.10587551181839	0.21279893900305694	0.42751890093251127	0.6238275786379217	0.2381220205474613	0.4376252968079167	0.3622091517114456	0.2162086795714856	0.3441780491662802	0.5021582780332967	0.36662564048525453	0.39355627745879346	0.6765934441139667	0.4941441119308208	0.10924176190249256	0.7296167795369959	0.30978977246813905	0.18248413953912307	0.65720624927369	0.20803440113707822	0.29538373051768485	0.6624469242847122	0.20488020961868944	0.27297890974680744	0.6544639758735769	0.22212049664894776	0.21859160976561384	0.6805654484226241	0.06086712736071678	0.4604953952718142	0.7122154766515901	-0.03151648708709376	0.48863129459925553	0.9762059505574298	-0.022055345299522012	0.32326033540418775	1.1299339326079547	0.05254359314570473	0.29570691224832996	1.1948294878105326	0.043038227855508024	0.2585472527437662	1.196549640617398	0.011853177449399014	0.24245953756500202	1.2010595916210502
169	2.864406779661017	0.29895289703993244	0.3192251145313923	1.2106176589228224	0.311127695274907	0.2880726861831205	1.6030628420622577	0.2828107108759992	0.3135470333537314	2.0299349643987896	0.2588981221886182	0.10001832082301527	1.9898363973332198	0.32187376460069117	0.1403712688445616	2.0137555288752935	0.2654232249033958	0.3383959910815812	2.1048093170798685	0.08958361530631657	0.3431354910289377	1.222789877753318	0.09229935340029485	0.2978927793520584	1.5995016307348406	0.13026176854058807	0.3247605383285432	2.042013617190976	0.11005076873631404	0.08670580267322117	1.998501253404336	0.05165535871594564	0.14804430396449428	2.000072830599983	0.13967272937452518	0.3550039222907373	2.1065232440053796	0.213089218400066	0.42767350843695906	0.6237538553260371	0.2381416286460527	0.43774594045386167	0.3625730653409439	0.21626241144179903	0.3442224808732998	0.5022029412906959	0.3665352478962887	0.39305266055950255	0.6798393798465924	0.494613827529851	0.10883813246091688	0.7369421558434999	0.3131749117434858	0.19053306433245318	0.6680160825242916	0.20866103616140208	0.294925095580217	0.6662480403497174	0.20521555593654814	0.2737457334793734	0.6547257882051201	0.21754379856156517	0.22986166389935733	0.6866376033298395	0.05772912627820268	0.4491898842997318	0.7099005667301445	-0.03163725856118553	0.488705296568827	0.9763109411172609	-0.025937853481616095	0.32089299831432433	1.1290203185864658	0.05257967730018027	0.2959282442827513	1.1947353907175107	0.04299225408849141	0.2587387886279611	1.196507073974315	0.01194441846772735	0.2427141348394944	1.200578392983733
170	2.8813559322033897	0.2989826526928032	0.31910280515091477	1.2106814987770633	0.3111401474545968	0.28800201020611627	1.6028856784519876	0.2829830969060911	0.31374912485715256	2.0303655310941773	0.2624539329914202	0.1093644453877739	1.998901346448369	0.3281738328848471	0.15678095332328695	2.0278551773578877	0.2658565592662481	0.3390345197362441	2.1065507085783444	0.09011143496300417	0.3435933794207015	1.2272926946407023	0.09720638832845276	0.30096259644818724	1.5966260655677702	0.1303259875449683	0.32503078132053415	2.0423403089553513	0.1059057668596757	0.0995040881875812	2.0097227793558283	0.05417550007211825	0.1584159429121336	2.0082051671640606	0.14013344015595364	0.3560393090186115	2.107594895506694	0.21316203439155484	0.42732576294816305	0.6230353385981334	0.2381145444831956	0.43772015536076025	0.3624605070782235	0.21620049049219847	0.34412741218673937	0.5022240233826863	0.36663261377466383	0.3930821623622006	0.6792233614412166	0.4949819308640347	0.10851034409301649	0.7445988312584576	0.30933092664124334	0.179161106486309	0.6719816706814817	0.20841719755505825	0.29471917100977174	0.6666841138051144	0.20483267603549918	0.2731064740052895	0.6545304718365631	0.21715020000059543	0.22772218001999123	0.6911599137251071	0.060966310570242384	0.4609532871946145	0.7126840133416865	-0.031599725253073134	0.4885265137432701	0.9762278059555385	-0.025951986448257698	0.32092069609129514	1.1290914408162762	0.05236007463958357	0.29756290072565134	1.1910576984132915	0.04293092027183934	0.25888811066470735	1.1967079302296533	0.011896945443900485	0.2427797867210767	1.2008806167930555
171	2.8983050847457625	0.2989782890805278	0.3190705025518845	1.2106380082253605	0.3107807446184535	0.2898317981012785	1.5993371842454476	0.2840146559015634	0.31400649988711193	2.025122417458436	0.25913701126190347	0.10039256430366071	1.990976226994402	0.32490032593079016	0.14862700523554845	2.0204792434917196	0.26699653808367846	0.33884269035071307	2.1015694864692387	0.0895908951478254	0.3428644468561733	1.2228960987153483	0.09680669314083212	0.29896639693522026	1.6042758197210176	0.13045747250018674	0.325179911715875	2.042667163205751	0.1067479372119222	0.0998291848799935	2.014087300933128	0.05417758772944861	0.1585325021590473	2.007906049686791	0.14004643485995938	0.35567504539472655	2.1074017118859456	0.21300556615143382	0.4270253241160367	0.6229766217266413	0.2338693897344901	0.43526511600860496	0.36229616192587216	0.21607646119581347	0.34391194262112346	0.5024440894952492	0.3666823986016703	0.393284963846188	0.6793382384214706	0.49494517810721994	0.10851551486408421	0.745478024258508	0.309534183635816	0.17995279442587686	0.6722817378063102	0.20798603182006015	0.29446607215925213	0.663749899953703	0.20823861746652692	0.26062102253085	0.6514839101393505	0.21678445308540706	0.22766914441045602	0.6919074557056978	0.060794334885450343	0.46099492621987515	0.7129683840854419	-0.03155969337911422	0.48874594699982954	0.9760488332481401	-0.026002683847260954	0.3206483814827373	1.1291845075927531	0.05258337629967511	0.2976293732950875	1.1909282069663722	0.0427018053628479	0.26031339934756087	1.1924485388459776	0.0157092903366417	0.24450955927269788	1.2017164400356148
